<svg width="215" height="47" viewBox="0 0 215 47" fill="none" xmlns="http://www.w3.org/2000/svg" id="logo">
<path d="M0 13.2606C0 12.9437 0.141461 12.7853 0.424382 12.7853H1.82506C1.924 12.7852 2.02138 12.81 2.10822 12.8575C2.21885 12.9285 2.30433 13.0326 2.35247 13.1551L8.75422 25.8123L9.16564 27.0402L9.03666 25.8029L8.93435 13.2606C8.92959 13.1371 8.96837 13.0159 9.04387 12.9182C9.08423 12.8719 9.13481 12.8356 9.19159 12.8123C9.24837 12.7889 9.30979 12.7792 9.37098 12.7838H10.812C10.921 12.7797 11.0272 12.8189 11.1074 12.8929C11.1843 12.9656 11.223 13.0838 11.2234 13.2476V30.6987C11.2234 31.0084 11.0731 31.1632 10.7724 31.1632H9.40917C9.30667 31.1606 9.20593 31.136 9.11376 31.0909C8.99887 31.029 8.91162 30.9258 8.8695 30.802L2.50738 18.3247L2.05706 17.0621L2.20117 18.3377L2.27538 30.6843C2.27538 31.0021 2.13824 31.161 1.86397 31.161H0.422941C0.140981 31.161 0 31.0021 0 30.6843V13.2606Z" id="color"/>
<path d="M26.607 30.671C26.6582 30.8155 26.6524 30.9346 26.5883 31.0249C26.5553 31.0697 26.5116 31.1055 26.4613 31.1291C26.4109 31.1527 26.3555 31.1633 26.3001 31.16H24.6415C24.5424 31.1588 24.4452 31.1325 24.359 31.0834C24.3073 31.051 24.2632 31.0076 24.2299 30.9563C24.1965 30.9051 24.1747 30.8471 24.1659 30.7866L23.3035 27.3975H17.7498L16.901 30.7866C16.8922 30.847 16.8705 30.9049 16.8373 30.9561C16.804 31.0074 16.7602 31.0508 16.7086 31.0834C16.6221 31.1324 16.5248 31.1587 16.4255 31.16H14.7704C14.7156 31.164 14.6607 31.1537 14.611 31.13C14.5614 31.1063 14.5187 31.0701 14.4873 31.0249C14.4569 30.9716 14.4387 30.9122 14.4342 30.8509C14.4298 30.7897 14.439 30.7282 14.4613 30.671L19.3608 13.17C19.3875 13.0492 19.4531 12.9406 19.5474 12.8608C19.6272 12.8009 19.7245 12.7692 19.8241 12.7706H21.2507C21.3522 12.7701 21.4513 12.8016 21.5339 12.8608C21.631 12.9392 21.6988 13.0481 21.7263 13.17L26.607 30.671ZM18.3009 25.232H22.7616L20.7298 17.1651L20.5374 15.7992L20.3443 17.1651L18.3009 25.232Z" id="color"/>
<path d="M34.5225 13.2474C34.5225 13.0762 34.565 12.9585 34.6515 12.8863C34.7266 12.8215 34.822 12.7853 34.921 12.7837H36.4636C36.6351 12.7837 36.7518 12.8285 36.8174 12.9188C36.8879 13.0326 36.9217 13.1656 36.9139 13.2994L36.901 26.9209C36.9098 27.5613 36.7895 28.1969 36.5472 28.7895C36.3313 29.322 36.0081 29.804 35.5977 30.2053C35.1873 30.6067 34.6986 30.9187 34.1623 31.1219C33.6007 31.339 33.0033 31.4483 32.4014 31.444C31.7413 31.446 31.0874 31.3166 30.4776 31.0634C29.9043 30.8378 29.3877 30.4884 28.9645 30.0398C28.8727 29.9443 28.8026 29.83 28.7592 29.7047C28.708 29.5667 28.7419 29.4381 28.8622 29.3175L29.6973 28.3381C29.8176 28.2181 29.935 28.1712 30.051 28.1936C30.1736 28.2236 30.2837 28.2913 30.3659 28.3872C30.599 28.5975 30.8611 28.7732 31.1441 28.9087C31.498 29.0817 31.888 29.1679 32.2817 29.16C32.5916 29.1633 32.8985 29.0998 33.1817 28.9737C33.4518 28.8519 33.6929 28.6738 33.8892 28.4515C34.0941 28.2132 34.2512 27.9375 34.3518 27.6396C34.4657 27.3036 34.5219 26.9507 34.5182 26.5958L34.5225 13.2474Z" id="color"/>
<path d="M40.4467 18.7116C40.4418 17.8943 40.5633 17.0812 40.807 16.3013C41.0321 15.5739 41.3968 14.8977 41.8805 14.3106C42.3645 13.7331 42.9704 13.2707 43.6544 12.9569C44.361 12.6261 45.1817 12.4609 46.1164 12.4614C47.0416 12.4614 47.8582 12.6266 48.5662 12.9569C49.2506 13.2715 49.8593 13.7302 50.3509 14.3019C50.8439 14.8843 51.2157 15.5597 51.4446 16.2883C51.6922 17.0672 51.8157 17.8804 51.8106 18.6979V25.258C51.8156 26.0745 51.692 26.8868 51.4446 27.6647C51.2164 28.3917 50.8471 29.0662 50.3581 29.6497C49.8683 30.2244 49.2586 30.6843 48.5719 30.9968C47.8596 31.3276 47.0399 31.493 46.1128 31.493C45.1858 31.493 44.3716 31.3279 43.6703 30.9975C42.9886 30.6827 42.3833 30.2231 41.8964 29.6504C41.4083 29.0665 41.0401 28.3917 40.8127 27.6647C40.565 26.8858 40.4415 26.0726 40.4467 25.2551V18.7116ZM42.8244 25.4126C42.8203 25.9187 42.8915 26.4226 43.0355 26.9078C43.1644 27.3471 43.3787 27.7566 43.666 28.1126C43.9458 28.4533 44.2968 28.7285 44.6941 28.9187C45.1386 29.1236 45.6237 29.2246 46.1128 29.2141C46.6045 29.2244 47.0921 29.1234 47.5394 28.9187C47.9406 28.7288 48.2959 28.4537 48.5806 28.1126C48.871 27.7602 49.0874 27.3526 49.2168 26.9143C49.3632 26.4318 49.436 25.9299 49.433 25.4256V18.5311C49.4376 18.0309 49.3647 17.5331 49.2168 17.0554C49.0827 16.6172 48.8671 16.2084 48.5813 15.8505C48.3001 15.5051 47.9466 15.2257 47.5459 15.0322C47.0988 14.8332 46.6153 14.7299 46.1261 14.7288C45.637 14.7277 45.153 14.8288 44.705 15.0257C44.3038 15.2152 43.9502 15.4926 43.6703 15.8375C43.3827 16.1956 43.1674 16.6062 43.0362 17.0467C42.8929 17.5275 42.8217 18.0271 42.8251 18.5289L42.8244 25.4126Z" id="color"/>
<path d="M53.9932 13.2184C53.9888 13.1591 53.9962 13.0995 54.015 13.0431C54.0338 12.9866 54.0636 12.9345 54.1027 12.8898C54.139 12.8537 54.1822 12.8253 54.2298 12.8066C54.2774 12.7878 54.3283 12.779 54.3794 12.7807H64.6885C64.7376 12.78 64.7862 12.7892 64.8316 12.808C64.8769 12.8267 64.918 12.8546 64.9522 12.8898C64.9916 12.9344 65.0216 12.9865 65.0406 13.0429C65.0595 13.0994 65.067 13.1591 65.0625 13.2184V14.6486C65.0625 14.7931 65.0264 14.9 64.9529 14.9643C64.8803 15.0286 64.7861 15.0632 64.6892 15.0611H60.717V30.7223C60.7259 30.8412 60.6887 30.9589 60.6133 31.051C60.5787 31.0873 60.5367 31.1158 60.4903 31.1346C60.4438 31.1534 60.3939 31.1621 60.3438 31.1601H58.7219C58.6698 31.163 58.6177 31.1548 58.569 31.136C58.5203 31.1172 58.4762 31.0882 58.4395 31.051C58.3637 30.9591 58.3265 30.8412 58.3358 30.7223V15.064H54.3794C54.2784 15.0676 54.1796 15.0331 54.1027 14.9672C54.0307 14.9029 53.9932 14.7982 53.9932 14.6515V13.2184Z" id="color"/>
<path d="M145.764 13.2184C145.76 13.1591 145.767 13.0996 145.786 13.0431C145.804 12.9867 145.834 12.9346 145.873 12.8898C145.909 12.8537 145.953 12.8255 146 12.8067C146.048 12.788 146.099 12.7791 146.15 12.7807H156.46C156.509 12.7799 156.557 12.7892 156.603 12.8079C156.648 12.8267 156.689 12.8545 156.723 12.8898C156.762 12.9346 156.792 12.9867 156.811 13.0431C156.829 13.0996 156.837 13.1591 156.832 13.2184V14.6486C156.832 14.7931 156.796 14.9 156.723 14.9643C156.651 15.0285 156.556 15.063 156.46 15.061H152.487V30.7223C152.496 30.8411 152.46 30.9588 152.384 31.051C152.35 31.0872 152.308 31.1157 152.261 31.1345C152.215 31.1533 152.165 31.162 152.115 31.16H150.495C150.443 31.1629 150.391 31.1546 150.342 31.1358C150.293 31.117 150.249 31.0881 150.212 31.051C150.137 30.9588 150.1 30.8411 150.109 30.7223V15.0639H146.15C146.049 15.0674 145.95 15.0328 145.873 14.9671C145.801 14.9029 145.764 14.7981 145.764 14.6515V13.2184Z" id="color"/>
<path d="M169.664 30.671C169.716 30.8155 169.709 30.9346 169.645 31.0249C169.612 31.0698 169.569 31.1057 169.518 31.1293C169.468 31.1529 169.412 31.1635 169.357 31.16H167.7C167.6 31.1588 167.503 31.1325 167.417 31.0834C167.365 31.0508 167.321 31.0074 167.288 30.9561C167.255 30.9049 167.233 30.847 167.224 30.7866L166.36 27.3975H160.806L159.957 30.7866C159.948 30.847 159.927 30.9049 159.893 30.9561C159.86 31.0074 159.816 31.0508 159.765 31.0834C159.678 31.1324 159.581 31.1587 159.482 31.16H157.824C157.77 31.1643 157.715 31.154 157.665 31.1303C157.615 31.1066 157.573 31.0703 157.541 31.0249C157.511 30.9717 157.492 30.9122 157.488 30.8509C157.483 30.7896 157.493 30.7281 157.515 30.671L162.415 13.17C162.441 13.0491 162.507 12.9404 162.601 12.8608C162.681 12.801 162.777 12.7692 162.877 12.7705H164.305C164.406 12.7699 164.505 12.8015 164.587 12.8608C164.685 12.9389 164.753 13.0479 164.78 13.17L169.664 30.671ZM161.36 25.232H165.821L163.789 17.1651L163.596 15.7992L163.404 17.1651L161.36 25.232Z" id="color"/>
<path d="M172.547 13.3506C172.539 13.2091 172.583 13.0696 172.668 12.957C172.714 12.9065 172.771 12.8672 172.835 12.8422C172.898 12.8171 172.966 12.807 173.034 12.8125H174.68C175.006 12.8125 175.169 12.9931 175.169 13.3542V15.5573C175.174 15.7995 175.125 16.0398 175.024 16.2601C174.936 16.4461 174.807 16.6092 174.645 16.7368C174.483 16.8635 174.297 16.9577 174.099 17.0142C173.894 17.0741 173.682 17.1045 173.469 17.1045C173.203 17.1045 173.07 16.9969 173.07 16.7816V16.2522C173.067 16.2088 173.076 16.1655 173.097 16.1271C173.117 16.0888 173.148 16.057 173.186 16.0355C173.269 15.9906 173.362 15.9682 173.457 15.9705C173.502 15.9756 173.549 15.9702 173.592 15.9547C173.635 15.9392 173.674 15.9139 173.707 15.8809C173.759 15.8054 173.784 15.7146 173.779 15.623C173.786 15.5394 173.766 15.4556 173.721 15.3847C173.693 15.3575 173.66 15.337 173.623 15.3245C173.586 15.312 173.547 15.3079 173.508 15.3124H172.982C172.868 15.3147 172.758 15.2731 172.673 15.1961C172.588 15.1189 172.545 14.9946 172.545 14.822L172.547 13.3506Z" id="color"/>
<path d="M179.67 13.2604C179.67 12.9426 179.811 12.7837 180.094 12.7837H181.625C181.907 12.7837 182.049 12.9426 182.049 13.2604V28.8928H188.053C188.158 28.8878 188.261 28.9226 188.342 28.9903C188.414 29.0546 188.451 29.1593 188.451 29.3052V30.7231C188.456 30.7825 188.448 30.8421 188.429 30.8986C188.411 30.955 188.381 31.0071 188.342 31.0518C188.303 31.0888 188.258 31.1176 188.209 31.1365C188.159 31.1553 188.106 31.1639 188.053 31.1616H180.094C179.811 31.1616 179.67 31.0027 179.67 30.6849V13.2604Z" id="color"/>
<path d="M192.258 13.2604C192.258 12.9426 192.402 12.7837 192.695 12.7837H194.224C194.499 12.7837 194.636 12.9426 194.636 13.2604V30.6841C194.636 31.002 194.499 31.1609 194.224 31.1609H192.695C192.403 31.1609 192.258 31.002 192.258 30.6841V13.2604Z" id="color"/>
<path d="M202.454 18.4145L201.991 16.7395L202.146 18.4008L202.247 30.6983C202.265 31.0074 202.136 31.162 201.863 31.162H200.358C200.22 31.162 200.126 31.1194 200.075 31.0334C200.019 30.9266 199.992 30.8066 199.998 30.686V13.1958C200 13.0835 200.039 12.9749 200.107 12.8859C200.142 12.8467 200.184 12.8159 200.232 12.7959C200.28 12.7758 200.332 12.7671 200.384 12.7704H202.196C202.241 12.7659 202.286 12.7729 202.328 12.7909C202.369 12.8088 202.406 12.8371 202.433 12.8729C202.49 12.9616 202.535 13.0569 202.569 13.1568L206.792 24.3946L206.998 25.4644L207.204 24.3809L211.455 13.1554C211.487 13.0554 211.533 12.96 211.589 12.8715C211.617 12.8355 211.654 12.8073 211.695 12.7893C211.737 12.7714 211.783 12.7644 211.828 12.7689H213.616C213.668 12.7657 213.719 12.7744 213.767 12.7945C213.815 12.8145 213.857 12.8453 213.891 12.8845C213.959 12.9733 213.998 13.082 214 13.1944V30.6838C214.018 31.0016 213.903 31.1603 213.654 31.1598H212.146C211.891 31.1598 211.764 31.0052 211.764 30.6961L211.878 18.4167L212.022 16.7929L211.586 18.4167L207.983 27.9145C207.958 28.027 207.905 28.1314 207.829 28.2178C207.762 28.2766 207.674 28.3066 207.585 28.3016H206.426C206.341 28.3053 206.258 28.2752 206.195 28.2178C206.119 28.1314 206.066 28.027 206.041 27.9145L202.454 18.4145Z" id="color"/>
<path d="M139.663 13.8509L137.844 14.1673C134.139 14.8124 130.691 15.7967 127.553 16.9553V6.97317L126.585 7.41088C124.385 8.40349 122.298 9.4407 120.309 10.5339L120.242 0.075716L119.189 0.751978C114.066 4.0389 109.368 7.7739 105.173 11.8854C101.132 8.04772 96.5783 4.32102 91.5779 0.769611L90.4937 0V10.8399C88.3275 9.61703 86.1066 8.50306 83.8392 7.50734L82.8717 7.08208L82.9172 16.3641C79.5987 15.219 76.2575 14.4712 72.9462 14.133L71.3169 13.9671L84.3596 30.3426L84.3018 18.3555C86.5434 19.2341 88.6177 20.237 90.4948 21.2711V31.6484L90.63 31.832C94.4648 37.0181 104.553 45.4537 104.981 45.8105L105.417 46.1746L105.856 45.8126C106.284 45.4599 116.38 37.1114 120.217 31.7231L120.443 31.3352L120.382 21.6736C122.145 20.7422 124.084 19.8211 126.18 18.9685V30.3934L139.663 13.8509ZM127.553 18.4292C130.222 17.4189 133.126 16.5332 136.229 15.8828L127.553 26.5267V18.4292ZM74.4651 15.7117C77.4624 16.1452 80.2956 16.8993 82.9223 17.839L82.9636 26.3815L74.4651 15.7117ZM118.874 2.60133L118.887 11.3336C115.818 13.1031 112.983 15.0219 110.317 17.1399C109.736 16.4989 109.14 15.859 108.526 15.22C107.758 14.4193 106.965 13.6238 106.154 12.8313C109.981 9.08182 114.21 5.68288 118.874 2.60133ZM95.7699 22.8871C94.4854 22.0169 93.1824 21.2058 91.867 20.4548V13.2452C94.4162 14.7937 96.8819 16.4989 99.2484 18.3514C98.0445 19.8149 96.8839 21.3271 95.7699 22.8871ZM100.315 19.1998C101.656 20.2879 102.964 21.4236 104.236 22.6039C103.007 23.8486 101.809 25.1545 100.633 26.5277C99.5447 25.6285 98.2933 24.6576 96.8953 23.6661C97.9898 22.132 99.1286 20.6426 100.315 19.1998ZM109.256 17.9998C107.866 19.1511 106.523 20.3584 105.215 21.6331C103.913 20.4227 102.574 19.2589 101.201 18.1439C102.477 16.6452 103.806 15.1951 105.188 13.7928C106.62 15.1869 107.977 16.5892 109.256 17.9998ZM109.049 27.482C107.208 28.9662 105.936 30.1663 105.278 30.8156C104.645 30.1497 103.426 28.9226 101.685 27.4176C102.844 26.0651 104.028 24.7779 105.239 23.552C106.551 24.8142 107.821 26.1242 109.049 27.482ZM100.794 28.4756C103.315 30.66 104.727 32.2479 104.748 32.2718L105.248 32.8392L105.764 32.2863C105.785 32.2635 107.26 30.6963 109.968 28.5161C110.83 29.5035 111.669 30.5148 112.485 31.5478L105.462 38.2181L98.3305 31.5955C99.1431 30.5179 99.9629 29.4786 100.794 28.4756ZM106.218 22.5822C107.499 21.3365 108.816 20.1561 110.176 19.0308C111.572 20.6208 112.869 22.2181 114.062 23.8175C113.933 23.9025 113.808 23.9866 113.684 24.0695C112.36 24.9595 111.174 25.8235 110.133 26.6263C108.872 25.2291 107.566 23.8808 106.218 22.5822ZM111.239 18.1719C113.634 16.2749 116.169 14.5407 118.892 12.932L118.904 20.9019C117.565 21.6342 116.332 22.3664 115.215 23.0728C113.997 21.4381 112.671 19.8035 111.239 18.1719ZM91.867 2.67497C96.4142 5.96915 100.541 9.37639 104.205 12.849C103.489 13.575 102.787 14.3104 102.101 15.0582C101.433 15.7884 100.777 16.5342 100.133 17.2914C97.4921 15.2221 94.7301 13.3313 91.867 11.6354V2.67497ZM86.2759 17.6627C85.6162 17.3806 84.9543 17.113 84.2915 16.8619L84.2543 9.20629C86.3792 10.1771 88.4607 11.2537 90.4917 12.4289V19.6946C89.0968 18.9478 87.6894 18.2684 86.2759 17.6627ZM94.979 24.0146C93.8948 25.5859 92.8561 27.1998 91.868 28.8542V22.0522C92.9883 22.7118 94.0291 23.3736 94.979 24.0146ZM105.42 44.3792C103.464 42.7196 95.4632 35.8388 92.0022 31.3653C93.2887 29.0876 94.6558 26.899 96.1044 24.7956C97.4601 25.7581 98.6795 26.7051 99.743 27.5857C98.7683 28.7629 97.808 29.9879 96.8571 31.2657L96.4864 31.7636L105.472 40.109L114.339 31.6878L113.955 31.1931C113.019 29.9868 112.05 28.8096 111.052 27.6635C112.053 26.8918 113.189 26.0651 114.449 25.2188C114.588 25.1244 114.732 25.0289 114.876 24.9335C116.384 27.0432 117.71 29.1571 118.845 31.2647C115.4 35.8854 107.381 42.731 105.42 44.3792ZM118.915 28.5959C118.044 27.1303 117.082 25.6606 116.029 24.1888C116.916 23.6298 117.877 23.0541 118.906 22.4764L118.915 28.5959ZM120.369 20.1229L120.317 12.1084C122.179 11.0619 124.127 10.0672 126.178 9.11502V17.4822C124.088 18.3099 122.146 19.2081 120.369 20.1229Z" fill="#BA8D5B"/>
</svg>
