<svg width="10" height="12" viewBox="0 0 10 12" fill="none" xmlns="http://www.w3.org/2000/svg">
<path d="M8.7941 6.54791L1.96543 11.2759C1.86537 11.3451 1.74826 11.3857 1.62681 11.3931C1.50535 11.4005 1.38418 11.3746 1.27642 11.3181C1.16867 11.2615 1.07843 11.1766 1.01551 11.0725C0.952584 10.9683 0.919354 10.8489 0.919434 10.7272V1.27258C0.919354 1.1509 0.952584 1.03151 1.01551 0.927373C1.07843 0.823223 1.16867 0.738283 1.27642 0.681763C1.38418 0.625243 1.50535 0.599283 1.62681 0.606713C1.74826 0.614143 1.86537 0.654673 1.96543 0.723913L8.7941 5.45191C8.8827 5.51327 8.955 5.59517 9.005 5.69061C9.055 5.78604 9.0811 5.89218 9.0811 5.99991C9.0811 6.10765 9.055 6.21378 9.005 6.30922C8.955 6.40465 8.8827 6.48656 8.7941 6.54791Z" fill="white"/>
</svg>
