<svg width="23" height="23" viewBox="0 0 23 23" fill="none" xmlns="http://www.w3.org/2000/svg" id="sun">
<path d="M11.5 1.646C11.8797 1.646 12.1875 1.9538 12.1875 2.3335V3.25016C12.1875 3.62986 11.8797 3.93766 11.5 3.93766C11.1203 3.93766 10.8125 3.62986 10.8125 3.25016V2.3335C10.8125 1.9538 11.1203 1.646 11.5 1.646Z" fill="white"/>
<path d="M11.5 6.22933C8.589 6.22933 6.22917 8.58916 6.22917 11.5002C6.22917 14.4112 8.589 16.771 11.5 16.771C14.411 16.771 16.7708 14.4112 16.7708 11.5002C16.7708 8.58916 14.411 6.22933 11.5 6.22933Z" fill="white"/>
<path d="M5.50434 4.53224C5.23585 4.26375 4.80055 4.26375 4.53206 4.53224C4.26358 4.80072 4.26358 5.23602 4.53206 5.50451L5.18025 6.15269C5.44873 6.42117 5.88403 6.42117 6.15252 6.15269C6.421 5.8842 6.421 5.4489 6.15252 5.18042L5.50434 4.53224Z" fill="white"/>
<path d="M21.3542 11.5002C21.3542 11.8799 21.0464 12.1877 20.6667 12.1877H19.75C19.3703 12.1877 19.0625 11.8799 19.0625 11.5002C19.0625 11.1205 19.3703 10.8127 19.75 10.8127H20.6667C21.0464 10.8127 21.3542 11.1205 21.3542 11.5002Z" fill="white"/>
<path d="M18.4679 5.5045C18.7364 5.23601 18.7364 4.80071 18.4679 4.53223C18.1994 4.26374 17.7641 4.26374 17.4957 4.53223L16.8475 5.18041C16.579 5.44889 16.579 5.88419 16.8475 6.15268C17.116 6.42117 17.5513 6.42117 17.8197 6.15268L18.4679 5.5045Z" fill="white"/>
<path d="M11.5 19.0627C11.8797 19.0627 12.1875 19.3705 12.1875 19.7502V20.6668C12.1875 21.0465 11.8797 21.3543 11.5 21.3543C11.1203 21.3543 10.8125 21.0465 10.8125 20.6668V19.7502C10.8125 19.3705 11.1203 19.0627 11.5 19.0627Z" fill="white"/>
<path d="M17.8198 16.8476C17.5513 16.5792 17.116 16.5792 16.8475 16.8476C16.579 17.1161 16.579 17.5514 16.8475 17.8199L17.4957 18.4681C17.7642 18.7366 18.1995 18.7366 18.468 18.4681C18.7365 18.1996 18.7365 17.7643 18.468 17.4958L17.8198 16.8476Z" fill="white"/>
<path d="M3.9375 11.5002C3.9375 11.8799 3.6297 12.1877 3.25 12.1877H2.33333C1.95364 12.1877 1.64583 11.8799 1.64583 11.5002C1.64583 11.1205 1.95364 10.8127 2.33333 10.8127H3.25C3.6297 10.8127 3.9375 11.1205 3.9375 11.5002Z" fill="white"/>
<path d="M6.15246 17.8199C6.42094 17.5514 6.42094 17.1161 6.15246 16.8476C5.88397 16.5792 5.44867 16.5792 5.18018 16.8476L4.532 17.4958C4.26352 17.7643 4.26352 18.1996 4.532 18.4681C4.80049 18.7366 5.23579 18.7366 5.50427 18.4681L6.15246 17.8199Z" fill="white"/>
</svg>
