<svg width="17" height="17" viewBox="0 0 17 17" fill="none" xmlns="http://www.w3.org/2000/svg">
<path d="M14.6121 8.12066C14.9281 8.534 14.9281 9.092 14.6121 9.50466C13.6167 10.804 11.2287 13.4794 8.44076 13.4794C5.65276 13.4794 3.26476 10.804 2.26943 9.50466C2.11569 9.30675 2.03223 9.06328 2.03223 8.81266C2.03223 8.56205 2.11569 8.31858 2.26943 8.12066C3.26476 6.82133 5.65276 4.146 8.44076 4.146C11.2287 4.146 13.6167 6.82133 14.6121 8.12066Z" stroke="black" stroke-opacity="0.35" stroke-width="1.5" stroke-linecap="round" stroke-linejoin="round"/>
<path d="M8.44043 10.8101C9.545 10.8101 10.4404 9.91463 10.4404 8.81006C10.4404 7.70549 9.545 6.81006 8.44043 6.81006C7.33586 6.81006 6.44043 7.70549 6.44043 8.81006C6.44043 9.91463 7.33586 10.8101 8.44043 10.8101Z" stroke="black" stroke-opacity="0.35" stroke-width="1.5" stroke-linecap="round" stroke-linejoin="round"/>
</svg>
